Coordinates
version=1
nRows=14
nColumns=40
inDegrees=yes

Units are S.I. units (second, meters, Newtons, ...)
Angles are in degrees.

endheader
time	pelvis_tilt	pelvis_list	pelvis_rotation	pelvis_tx	pelvis_ty	pelvis_tz	hip_flexion_r	hip_adduction_r	hip_rotation_r	knee_angle_r	knee_angle_r_beta	ankle_angle_r	subtalar_angle_r	mtp_angle_r	hip_flexion_l	hip_adduction_l	hip_rotation_l	knee_angle_l	knee_angle_l_beta	ankle_angle_l	subtalar_angle_l	mtp_angle_l	lumbar_extension	lumbar_bending	lumbar_rotation	arm_flex_r	arm_add_r	arm_rot_r	elbow_flex_r	pro_sup_r	wrist_flex_r	wrist_dev_r	arm_flex_l	arm_add_l	arm_rot_l	elbow_flex_l	pro_sup_l	wrist_flex_l	wrist_dev_l
      4.22750000	     -1.24459300	     -1.07146328	     -3.32356233	      1.00044184	      0.93473603	      0.43233835	     36.08920647	    -10.77002694	     -9.12556412	     63.44823151	     63.44823151	      3.57119047	    -16.31298275	      3.92082230	      6.98807543	     -0.10622866	    -14.59139265	     15.87346473	     15.87346473	     13.50531924	     -4.56399035	     -7.79258771	    -10.75403661	      0.52548726	     -0.54553005	     -6.18164591	    -13.68011693	     -7.12975046	     41.98416400	     46.49613820	      0.00000000	      0.00000000	     21.55326935	    -14.97890317	      3.71497518	     35.44920055	     46.31866701	      0.00000000	      0.00000000
      4.23871429	     -1.16644387	     -0.98512073	     -3.46763127	      0.99992832	      0.93455764	      0.43192209	     36.14813169	    -10.55275203	     -9.14753927	     59.78236838	     59.78236838	      2.90811236	    -16.18517318	      3.67962272	      6.00659772	      0.12895421	    -14.78150710	     15.30868888	     15.30868888	     13.81154520	     -4.20275566	     -8.00605310	    -10.86015292	      0.54913098	     -0.56927250	     -6.72163462	    -13.64414598	     -8.57497634	     37.37468774	     46.69323016	      0.00000000	      0.00000000	     22.35889563	    -15.29987378	      2.80876445	     37.48612949	     46.42556058	      0.00000000	      0.00000000
      4.24992857	     -1.15777433	     -0.89881857	     -3.59588664	      0.99942163	      0.93419598	      0.43162188	     36.09844011	    -10.29288472	     -9.24966183	     55.79465040	     55.79465040	      2.22249771	    -16.02714424	      3.55334197	      5.11311279	      0.34153517	    -15.01501983	     14.77456535	     14.77456535	     14.14462961	     -3.72382087	     -8.22435218	    -10.88535282	      0.57587510	     -0.60566702	     -7.27339375	    -13.72278810	     -9.92247957	     33.11447572	     46.87854226	      0.00000000	      0.00000000	     23.13176750	    -15.60283272	      1.97005639	     39.37578652	     46.51749735	      0.00000000	      0.00000000
      4.26114286	     -1.18668268	     -0.82464901	     -3.69008548	      0.99894864	      0.93367414	      0.43139940	     35.92929270	     -9.98509449	     -9.43031320	     51.57519631	     51.57519631	      1.76842699	    -15.69725808	      4.15592743	      4.27032031	      0.55095145	    -15.12984258	     14.24956972	     14.24956972	     14.48066733	     -3.40816648	     -8.29097720	    -10.93288565	      0.66297228	     -0.34279812	     -8.93284478	    -14.15320035	    -10.13415217	     31.57814391	     46.93293211	      0.00000000	      0.00000000	     24.21178459	    -15.68165963	      1.69260121	     40.60466319	     46.56460337	      0.00000000	      0.00000000
      4.27235714	     -1.22107035	     -0.73148715	     -3.76858839	      0.99861965	      0.93303163	      0.43132825	     35.59025702	     -9.66315508	     -9.68413417	     47.12730496	     47.12730496	      1.27086306	    -15.15886602	      4.55423911	      3.41291451	      0.76113998	    -15.29533801	     13.71422243	     13.71422243	     14.83553333	     -2.93882024	     -8.44291707	    -10.88927891	      0.66089577	      0.00130286	    -10.44166834	    -14.49068755	    -10.46011289	     29.50918846	     47.01978375	      0.00000000	      0.00000000	     25.19598940	    -15.72081469	      1.32245954	     42.28903626	     46.62237159	      0.00000000	      0.00000000
      4.28357143	     -1.41313493	     -0.58495327	     -3.80629004	      0.99831897	      0.93202307	      0.43140116	     35.20832127	     -9.37289394	    -10.10150594	     42.37538005	     42.37538005	      0.20377809	    -14.57532480	      3.09851114	      2.79622218	      0.95027836	    -15.67925182	     13.31678940	     13.31678940	     15.23111348	     -2.10954938	     -8.76074269	    -10.66519221	      0.56882394	     -0.66915726	    -10.09392334	    -14.50774032	    -12.42119168	     24.55559930	     47.34624295	      0.00000000	      0.00000000	     24.70839837	    -16.51644281	     -0.02179832	     46.23273408	     46.76041396	      0.00000000	      0.00000000
      4.29478571	     -1.52193896	     -0.45242832	     -3.80306997	      0.99814326	      0.93103839	      0.43153383	     34.63402098	     -9.02554136	    -10.54019490	     37.65154191	     37.65154191	     -0.11896764	    -13.38705334	      3.37174687	      2.04438715	      1.18763067	    -15.71486741	     12.83259688	     12.83259688	     15.61502381	     -1.73502620	     -8.78306572	    -10.58057272	      0.52390642	     -0.42843716	    -11.67796559	    -14.74315167	    -13.09940438	     23.30568485	     47.43229739	      0.00000000	      0.00000000	     25.52636795	    -16.51145174	     -0.52710941	     47.99268406	     46.82580619	      0.00000000	      0.00000000
      4.30600000	     -1.62806047	     -0.38367637	     -3.73579455	      0.99810031	      0.92991779	      0.43180714	     33.89966339	     -8.59844153	    -11.12758388	     32.91055121	     32.91055121	     -0.20210197	    -11.77251882	      3.88336707	      1.37449804	      1.30852110	    -15.70168533	     12.53893731	     12.53893731	     16.03296838	     -1.41624141	     -8.92373499	    -10.47129176	      0.54636820	     -0.38742698	    -13.18087874	    -15.03980452	    -13.50189482	     22.42312433	     47.48795240	      0.00000000	      0.00000000	     26.19862838	    -16.69635838	     -0.88831394	     49.57633305	     46.87712800	      0.00000000	      0.00000000
      4.31721429	     -1.87829479	     -0.29399540	     -3.63549275	      0.99818240	      0.92843958	      0.43222439	     33.25394648	     -8.12905100	    -11.65711901	     28.30436094	     28.30436094	     -0.19135229	     -9.91842802	      4.56116216	      0.84724474	      1.43568183	    -15.65757983	     12.22729811	     12.22729811	     16.45776961	     -1.10868547	     -9.07411135	    -10.15592162	      0.52881158	     -0.40779476	    -14.66691120	    -15.20404082	    -13.77558078	     21.74879603	     47.52552645	      0.00000000	      0.00000000	     26.77476139	    -16.83296026	     -1.16911665	     51.06703708	     46.92108972	      0.00000000	      0.00000000
      4.32842857	     -1.88484501	     -0.14397541	     -3.53822995	      0.99861795	      0.92706275	      0.43275885	     32.40189478	     -7.82171952	    -12.42195514	     24.21741872	     24.21741872	      0.47456404	     -7.10301699	      5.91546856	      0.04369835	      1.60060328	    -15.82551921	     11.96712705	     11.96712705	     17.03871587	     -0.37309808	     -9.08718946	    -10.20861990	      0.38192789	     -0.82668533	    -15.83253986	    -15.30915326	    -15.40833600	     21.32645701	     47.66969741	      0.00000000	      0.00000000	     25.96095194	    -17.47159171	     -2.26523487	     56.02050740	     47.05715721	      0.00000000	      0.00000000
      4.33964286	     -1.95750567	     -0.09589551	     -3.35317153	      0.99918589	      0.92547820	      0.43340796	     31.56606595	     -7.33587932	    -12.96662739	     20.41718582	     20.41718582	      0.92621102	     -4.91059600	      6.95588422	     -0.65640743	      1.65763837	    -15.65955716	     11.76830325	     11.76830325	     17.53890058	     -0.16204917	     -9.21475163	    -10.07099672	      0.40582404	     -0.70157746	    -17.34767850	    -15.43511097	    -15.70784134	     20.77654045	     47.70273191	      0.00000000	      0.00000000	     26.53868143	    -17.44568889	     -2.51890624	     57.49283621	     47.10177326	      0.00000000	      0.00000000
      4.35085714	     -2.02138293	      0.04351624	     -3.19481531	      0.99989797	      0.92379550	      0.43414895	     31.04161855	     -7.10180047	    -13.72718943	     17.71848044	     17.71848044	      2.50972915	     -1.94574077	     10.47392752	     -1.36244438	      1.79061422	    -15.61957982	     11.60276014	     11.60276014	     18.12703562	      0.22924126	     -9.02232731	     -9.99600464	      0.24156201	     -1.02885651	    -18.81837098	    -15.42130481	    -16.99929210	     21.39228185	     47.75157468	      0.00000000	      0.00000000	     26.03324378	    -17.87108782	     -3.19533255	     61.34959551	     47.20372195	      0.00000000	      0.00000000
      4.36207143	     -2.09832510	      0.06411925	     -2.99134079	      1.00072441	      0.92205751	      0.43506291	     30.50141046	     -6.70670948	    -14.22075554	     15.42616786	     15.42616786	      3.68286096	      0.07278974	     13.13475684	     -2.00071678	      1.76615296	    -15.40641271	     11.56657795	     11.56657795	     18.77560144	      0.46461937	     -8.84165799	     -9.88125731	      0.27134554	     -1.04573742	    -20.19441663	    -15.40063570	    -17.87884488	     21.65187219	     47.76220460	      0.00000000	      0.00000000	     26.01038132	    -18.04422339	     -3.64629527	     63.77920267	     47.27666170	      0.00000000	      0.00000000
      4.37328571	     -2.15612991	      0.04199074	     -2.78043380	      1.00171150	      0.92029923	      0.43619146	     29.94386160	     -6.26261314	    -14.46979801	     13.57496815	     13.57496815	      4.04414155	      1.37605135	     13.57908617	     -2.64092462	      1.67121412	    -15.15347566	     11.57629747	     11.57629747	     19.27631525	      0.52301786	     -8.90580425	     -9.71055944	      0.30956146	     -0.86262361	    -21.45674037	    -15.32697877	    -18.00269791	     21.38489252	     47.76365268	      0.00000000	      0.00000000	     26.44514237	    -17.94130588	     -3.77084345	     65.11019315	     47.30983565	      0.00000000	      0.00000000
